<svg width="1600" height="1000" viewBox="0 0 1600 1000" fill="none" xmlns="http://www.w3.org/2000/svg">
  <rect width="1600" height="1000" fill="#020617"/>
  <rect x="80" y="80" width="1440" height="840" rx="36" stroke="#22D3EE" stroke-opacity="0.35" stroke-width="3"/>
  <rect x="140" y="140" width="1320" height="720" rx="28" fill="url(#bg)"/>
  <circle cx="390" cy="360" r="120" fill="#22D3EE" fill-opacity="0.16"/>
  <circle cx="1110" cy="620" r="180" fill="#8B5CF6" fill-opacity="0.2"/>
  <rect x="240" y="260" width="380" height="260" rx="24" fill="#0F172A" stroke="#38BDF8" stroke-opacity="0.35"/>
  <rect x="280" y="300" width="140" height="16" rx="8" fill="#22D3EE"/>
  <rect x="280" y="332" width="220" height="12" rx="6" fill="#475569"/>
  <rect x="280" y="356" width="180" height="12" rx="6" fill="#475569"/>
  <rect x="280" y="382" width="160" height="12" rx="6" fill="#475569"/>
  <rect x="290" y="430" width="100" height="54" rx="12" fill="#0EA5E9" fill-opacity="0.75"/>
  <rect x="410" y="430" width="100" height="54" rx="12" fill="#8B5CF6" fill-opacity="0.75"/>
  <rect x="760" y="240" width="420" height="320" rx="24" fill="#0F172A" stroke="#818CF8" stroke-opacity="0.35"/>
  <rect x="820" y="300" width="300" height="24" rx="12" fill="#38BDF8"/>
  <rect x="820" y="348" width="240" height="16" rx="8" fill="#475569"/>
  <rect x="820" y="380" width="260" height="16" rx="8" fill="#475569"/>
  <rect x="820" y="412" width="240" height="16" rx="8" fill="#475569"/>
  <rect x="820" y="444" width="180" height="16" rx="8" fill="#475569"/>
  <rect x="240" y="560" width="640" height="180" rx="24" fill="#0F172A" stroke="#22D3EE" stroke-opacity="0.3"/>
  <path d="M300 650H540" stroke="#22D3EE" stroke-width="10" stroke-linecap="round"/>
  <path d="M300 620C330 560 390 560 430 620" stroke="#818CF8" stroke-width="10" stroke-linecap="round"/>
  <path d="M460 620C490 560 550 560 580 620" stroke="#22D3EE" stroke-width="10" stroke-linecap="round"/>
  <path d="M770 620L950 480" stroke="#38BDF8" stroke-width="10" stroke-linecap="round"/>
  <circle cx="950" cy="480" r="34" fill="#22D3EE"/>
  <circle cx="770" cy="620" r="34" fill="#8B5CF6"/>
  <defs>
    <linearGradient id="bg" x1="140" y1="140" x2="1460" y2="860" gradientUnits="userSpaceOnUse">
      <stop stop-color="#0F172A"/>
      <stop offset="1" stop-color="#111827"/>
    </linearGradient>
  </defs>
</svg>
